{"title":"Miss Peregrines Home for Peculiar Children 2016","uid":15943850,"size":444938816,"categoryP":"video","categoryS":"movies","magnet":"?xt=urn:btih:7f8d6ad8e1f62c9d84bfb3ead325835a5311d244&amp;dn=Miss+Peregrines+Home+for+Peculiar+Children+2016&amp;tr=udp%3A%2F%2Ftracker.leechers-paradise.org%3A6969&amp;tr=udp%3A%2F%2Fzer0day.ch%3A1337&amp;tr=udp%3A%2F%2Fopen.demonii.com%3A1337&amp;tr=udp%3A%2F%2Ftracker.coppersurfer.tk%3A6969&amp;tr=udp%3A%2F%2Fexodus.desync.com%3A6969","seeders":68,"leechers":26,"uploader":"catminister","files":1,"time":1475483965,"description":"\nComplete name                  Miss Peregrines Home for Peculiar Children 2016 HDCAM x265 HEVC AAC.mp4\r\nFormat                         : MPEG-4\r\nFormat profile                 : Base Media / Version 2\r\nCodec ID                       : mp42\r\nFile size                      : 424 MiB\r\nDuration                       : 2h 0mn\r\nOverall bit rate mode          : Variable\r\nOverall bit rate               : 493 Kbps\r\nEncoded date                   : UTC 2016-10-02 19:33:28\r\nTagged date                    : UTC 2016-10-02 19:33:28\r\nWriting application            : HandBrake 0.10.5 2016021100\r\n\r\nVideo\r\nID                             : 1\r\nFormat                         : HEVC\r\nFormat/Info                    : High Efficiency Video Coding\r\nFormat profile                 :   @Main\r\nCodec ID                       : hev1\r\nCodec ID/Info                  : High Efficiency Video Coding\r\nDuration                       : 2h 0mn\r\nBit rate                       : 325 Kbps\r\nWidth                          : 618 pixels\r\nHeight                         : 272 pixels\r\nDisplay aspect ratio           : 2.25:1\r\nFrame rate mode                : Variable\r\nFrame rate                     : 29.970 fps\r\nMinimum frame rate             : 29.412 fps\r\nMaximum frame rate             : 30.303 fps\r\nColor space                    : YUV\r\nChroma subsampling             : 4:2:0\r\nBit depth                      : 8 bits\r\nBits/(Pixel*Frame)             : 0.065\r\nStream size                    : 280 MiB (66%)\r\nWriting library                : x265 1.9:[Windows][GCC 4.9.0][64 bit] 8bit\r\n\r\n\r\nAudio\r\nID                             : 2\r\nFormat                         : AAC\r\nFormat/Info                    : Advanced Audio Codec\r\nFormat profile                 : LC\r\nCodec ID                       : 40\r\nDuration                       : 2h 0mn\r\nBit rate mode                  : Variable\r\nBit rate                       : 160 Kbps\r\nChannel(s)                     : 2 channels\r\nChannel positions              : Front: L R\r\nSampling rate                  : 48.0 KHz\r\nCompression mode               : Lossy\r\nStream size                    : 138 MiB (32%)\r\nTitle                          : Stereo / Stereo\r\nEncoded date                   : UTC 2016-10-02 19:33:28\r\nTagged date                    : UTC 2016-10-02 19:33:28","torrent":{"xt":"urn:btih:7f8d6ad8e1f62c9d84bfb3ead325835a5311d244","amp;dn":"Miss+Peregrines+Home+for+Peculiar+Children+2016","amp;tr":["udp%3A%2F%2Ftracker.leechers-paradise.org%3A6969","udp%3A%2F%2Fzer0day.ch%3A1337","udp%3A%2F%2Fopen.demonii.com%3A1337","udp%3A%2F%2Ftracker.coppersurfer.tk%3A6969","udp%3A%2F%2Fexodus.desync.com%3A6969"],"infoHash":"7f8d6ad8e1f62c9d84bfb3ead325835a5311d244","infoHashBuffer":{"type":"Buffer","data":[127,141,106,216,225,246,44,157,132,191,179,234,211,37,131,90,83,17,210,68]},"announce":[],"urlList":[]}}